PathFileType	4	(X/Y/Z)	C:/Users/beibeiliu/ov580/test_trc/User3\sequence.14_training_dense_left.trc
DataRate	CameraRate	NumFrames	NumMarkers	Units	OrigDataRate	OrigDataStartFrame	OrigNumFrames
120	120	9	19	mm	120	1	79
Frame#	Time	ThumbCMC			ThumbMCP			ThumbIP			ThumbTip			IndexMCP			IndexPIP			IndexTip			MiddleMCP			MiddlePIP			MiddleTip			RingMCP			RingPIP			RingTip			PinkyMCP			PinkyPIP			PinkyTip			BackHand1			BackHand2			BackHand3	
		X0	Y0	Z0	X1	Y1	Z1	X2	Y2	Z2	X3	Y3	Z3	X4	Y4	Z4	X5	Y5	Z5	X6	Y6	Z6	X7	Y7	Z7	X8	Y8	Z8	X9	Y9	Z9	X10	Y10	Z10	X11	Y11	Z11	X12	Y12	Z12	X13	Y13	Z13	X14	Y14	Z14	X15	Y15	Z15	X16	Y16	Z16	X17	Y17	Z17	X18	Y18	Z18	
0	0	-165.266	-28.2041	19.804	-160.765	-38.9674	-16.7618	-166.527	-48.2918	-47.9685	-185.652	-62.9916	-66.1613	-214.797	6.40081	-27.8374	-216.04	19.6141	-51.4713	-219.378	30.3684	-80.2746	-232.444	-9.3919	-36.5958	-234.796	-7.90357	-67.8568	-225.866	-19.1732	-99.4474	-235.015	-32.7249	-37.4271	-228.71	-42.9978	-62.7189	-205.067	-64.6711	-69.7339	-247.378	-51.5937	-20.8389	-252.638	-50.8716	-39.893	-254.661	-48.3529	-65.3643	-233.369	-34.9008	20.3441	-221.775	-47.2274	51.41	-205.625	-17.2104	33.3187	
1	0.00833333	-167.956	-29.8498	18.1658	-161.47	-38.3272	-17.875	-170.896	-49.2891	-44.2022	-186.274	-64.0963	-63.8849	-216.514	5.52332	-29.3294	-219.367	19.1571	-55.3032	-221.334	27.6622	-81.5085	-233.262	-10.0014	-39.2604	-234.856	-8.64307	-65.6588	-226.553	-20.9513	-99.6312	-238.522	-37.6228	-35.8962	-227.294	-44.6778	-62.5646	-200.368	-68.8366	-69.8858	-244.454	-53.2434	-17.8703	-253.82	-51.8819	-45.3267	-257.489	-51.7026	-64.7344	-233.332	-40.1447	22.9756	-223.093	-46.5957	49.3714	-205.784	-18.1158	31.1326	
2	0.0166667	-167.191	-31.6747	19.5755	-161.196	-39.7487	-14.8373	-170.575	-50.6343	-48.6791	-183.584	-63.7886	-60.2203	-213.594	8.77691	-32.599	-218.824	16.6637	-53.733	-217.988	28.0254	-77.484	-234.67	-13.2793	-36.1094	-234.917	-10.5888	-66.869	-225.346	-19.1436	-98.4984	-234.979	-35.3357	-33.9182	-224.59	-48.7747	-64.629	-202.059	-70.2944	-69.8168	-246.736	-54.1157	-18.895	-253.362	-53.9915	-43.411	-254.635	-53.302	-65.2562	-234.542	-40.9879	22.8372	-221.777	-48.0682	48.2209	-205.659	-21.3253	33.3611	
3	0.025	-167.599	-28.4359	14.4664	-164.068	-39.8163	-17.0995	-170.745	-50.7212	-46.3449	-181.908	-64.1851	-61.1239	-216.508	6.27372	-32.7667	-217.715	20.3845	-57.0626	-222.682	23.2848	-77.7909	-233.264	-12.68	-35.4617	-235.743	-11.6966	-69.4774	-227.458	-22.0141	-99.3986	-235.445	-35.3873	-36.9988	-226.547	-49.0022	-64.5043	-205.224	-65.7994	-71.3465	-242.826	-52.8583	-18.0701	-251.741	-50.789	-42.8206	-256.477	-53.328	-65.7211	-234.275	-39.9382	19.1996	-225.573	-50.4404	47.2544	-206.966	-19.0347	30.4398	
4	0.0333333	-169.767	-30.9691	18.0829	-164.138	-39.1532	-19.7592	-167.099	-50.1458	-47.9228	-181.91	-65.349	-64.6476	-214.534	6.56113	-30.8026	-218.873	17.2383	-54.1343	-219.993	25.5453	-79.1195	-234.964	-9.40495	-41.0739	-234.563	-10.6631	-72.6379	-226.64	-20.4366	-99.2646	-238.84	-39.5712	-36.9662	-226.343	-48.0897	-66.8306	-202.763	-69.0004	-70.0323	-247.589	-56.5353	-20.9773	-250.96	-51.4835	-42.5962	-254.586	-55.7838	-68.22	-235.805	-40.2705	19.3713	-223.212	-45.4744	44.9381	-207.761	-20.0879	28.7953	
5	0.0416667	-171.496	-28.9643	14.3376	-163.485	-37.3282	-18.1833	-169.326	-48.7678	-48.6199	-181.061	-65.403	-64.4033	-214.137	4.58577	-31.6795	-221.898	13.29	-60.8179	-219.95	20.8102	-82.4991	-238.679	-14.4718	-40.0011	-238.655	-11.2572	-70.4604	-227.243	-27.3611	-98.9028	-240.668	-40.5166	-37.1578	-230.267	-50.3278	-66.8333	-206.815	-67.9796	-69.4117	-246.007	-56.594	-20.0174	-251.501	-54.4274	-42.0422	-247.904	-62.4662	-69.0293	-231.987	-40.6294	20.6972	-223.862	-49.295	45.2825	-206.045	-18.6388	28.5645	
6	0.05	-171.046	-26.0671	15.4968	-162.154	-33.9598	-18.6127	-166.048	-46.9665	-43.1463	-180.255	-63.4903	-58.7549	-220.369	0.153274	-37.4427	-219.925	10.324	-58.9965	-221.419	12.934	-85.7085	-242.462	-18.4793	-38.8106	-242.785	-14.3592	-67.6682	-223.047	-33.4549	-96.7195	-238.821	-39.5158	-34.0912	-233.051	-49.2781	-64.6753	-201.048	-65.5651	-64.156	-246.175	-62.6781	-20.0842	-249.935	-61.2258	-48.6734	-237.95	-68.995	-69.9788	-230.058	-44.4494	19.2197	-224.92	-53.2574	46.402	-210.854	-22.2034	30.2919	
7	0.0583333	-172.189	-25.751	21.1292	-162.79	-31.542	-14.3683	-167.024	-42.0602	-47.3479	-180.316	-62.7446	-59.6674	-222.258	-2.68068	-36.8841	-222.453	7.1774	-65.2278	-223.264	7.06027	-87.8535	-243.627	-21.8867	-38.6167	-244.922	-21.2847	-68.6617	-215.315	-38.7662	-92.9791	-240.295	-43.0027	-35.411	-233.36	-55.4661	-64.2212	-203.759	-67.7775	-60.2638	-246.584	-65.5935	-21.9457	-248.099	-65.3705	-46.5043	-227.329	-73.9967	-69.3818	-234.361	-52.4426	18.8283	-226.763	-55.9583	43.9965	-213.094	-21.5086	29.1918	
8	0.0666667	-175.632	-26.055	18.9817	-166.271	-31.246	-14.9679	-168.573	-42.3105	-42.1969	-182.81	-64.3227	-55.4929	-223.608	-6.49907	-35.8153	-225.67	2.85938	-67.0726	-220.19	6.5999	-93.4325	-243.381	-26.4564	-36.7021	-245.057	-29.917	-72.7846	-216.227	-43.7228	-90.7901	-242.455	-48.5508	-37.6188	-232.849	-58.6353	-64.9856	-199.375	-66.6079	-58.262	-243.156	-72.1287	-19.4938	-246.86	-70.5363	-46.7381	-225.82	-78.8764	-68.6976	-234.046	-53.4589	16.1554	-226.626	-60.2045	45.8356	-214.727	-26.6693	28.7117	
